<?xml version="1.0" encoding="utf-8"?>
<!-- Generator: Adobe Illustrator 16.0.0, SVG Export Plug-In . SVG Version: 6.00 Build 0)  -->
<!DOCTYPE svg PUBLIC "-//W3C//DTD SVG 1.1//EN" "http://www.w3.org/Graphics/SVG/1.1/DTD/svg11.dtd">
<svg version="1.1" id="Layer_1" xmlns="http://www.w3.org/2000/svg" xmlns:xlink="http://www.w3.org/1999/xlink" x="0px" y="0px"
	 width="359px" height="640px" viewBox="0 0 359 640" enable-background="new 0 0 359 640" xml:space="preserve">
<g transform="translate(0.000000,640.000000) scale(0.100000,-0.100000)">
	<path fill="#BABABA" d="M1623.325,5788.33c-86.67-40-147.324-147.329-169.326-238.33c-30-123.999-6.997-228.999,72.002-332.998
		c23.999-31.001,43.999-63.003,43.999-70c0-8.003-17.998-32.002-40-55c-42.998-46.001-70-118.003-70-188.003
		c0-45-7.002-53.999-60-73.999c-127.002-47.998-467.998-235-477.998-262.002c-2.002-3.999-8.003-7.998-13.003-7.998
		s-16.997-6.001-26.001-13.999c-10-8.003-53.999-43.999-97.998-78.999c-155-124.004-320-314.004-417.002-481.001
		C270,3818.999,197.002,3586.001,178.999,3385c-7.998-90-13.999-122.998-26.001-130c-73.999-47.002-95.996-97.002-90.996-205
		L65,2985l37.998-2.998l39.004-2.998L135,2707.002c-2.998-150-10-432.002-15-627.002s-12.002-520.996-15-725
		C90,337.998,93.999,387.998,45,390.996C0,394.004,0,392.998,0,295c0-70,2.998-95,12.998-95C20,200,30,190,35,177.998
		c6.001-12.002,22.002-30.996,37.998-42.002c25-18.994,48.003-20.996,275-27.998C1138.999,84.004,1793.999,75,2872.002,75
		c445.996,0,457.002,0,483.994,20.996c58.008,43.008,69.004,68.008,72.002,169.004l4.004,92.998L3390.996,365
		c-32.998,5-40.996,10.996-40,27.998c0,12.002-1.992,119.004-5,237.002c-2.998,117.998-10,494.004-15.996,835s-15,790.996-20,1000
		c-5.996,209.004-10,407.998-10,442.002V2970h34.004c18.994,0,37.998,5,41.992,10.996c3.008,6.006,6.006,43.008,5,82.002
		c-1.992,85-18.994,120-78.994,160L3260,3251.001V3365c0,186.001-49.004,382.998-144.004,575c-60,120-75,143.999-160,260
		c-182.998,250-465,460-845.996,631.001l-125,56.001l-5.996,53.999c-9.004,80-47.002,151.001-97.002,177.998
		c-29.004,15-27.998,26.001,3.994,58.003c48.008,47.998,83.008,115,100,191.997c15,65,15,86.001,5,146.001
		c-18.994,110-81.006,246.665-211.006,289.995 M1768.999,5703.999c27.002-6.001,60.005-31.997,100.005-78.999
		c20-25,40.996-112.998,40-175c0-97.002-51.006-193.999-116.006-225c-40-18.999-143.999-17.002-150.996,2.998
		C1640,5235,1633.999,5240,1627.998,5240c-28.999,0-85,111.001-92.998,186.001s7.998,146.001,46.001,205
		C1625,5700,1681.001,5721.001,1768.999,5703.999z M1410,4717.998c0-6.997-38.999-40.996-87.998-75
		c-290-205-524.004-521.997-631.001-853.999c-38.999-120-71.001-311.997-71.001-421.997c0-75-2.998-88.003-18.999-97.002
		c-21.001-11.001-271.001-13.999-310-2.998c-23.999,5.996-23.999,5.996-18.003,116.997c16.001,322.002,173.003,640,453.003,918.999
		C780,4356.001,827.998,4400,832.998,4400s17.002,7.998,26.001,17.998C867.998,4427.002,911.001,4460,955,4490
		c43.999,28.999,82.002,56.001,85,58.999c7.998,10,62.998,41.001,102.998,58.999c20,9.004,37.002,20,37.002,24.004
		c0,5,3.999,7.998,8.999,7.998s51.001,20,103.003,45C1390,4732.002,1410,4737.998,1410,4717.998z M2200,4687.002
		c109.004-55,112.998-58.003,242.998-144.004c216.006-145,376.006-303.999,504.004-500c140.996-216.997,230.996-498.999,232.998-725
		V3260h-174.004h-172.998l-7.002,46.001c-2.998,26.001-5.996,73.999-5.996,107.998c0,68.003-22.998,240-40.996,301.001
		c-82.002,288.999-213.008,523.999-399.004,720c-57.998,61.001-215.996,206.001-239.004,220
		c-33.994,18.999-70.996,52.998-70.996,63.999C2070,4741.001,2115.996,4728.999,2200,4687.002z M2077.002,4596.001
		C2400,4353.999,2629.004,4002.998,2704.004,3635c18.994-92.998,38.994-320,31.992-350l-5.996-25h-214.004
		c-185.996,0-215,2.002-220,16.001c-2.998,8.999-5.996,76.997-5.996,151.997c0,345-80,719.004-207.998,977.002
		c-45,90-121.006,212.998-154.004,248.999c-10,11.001-17.998,28.003-17.998,38.003c0,18.999,0.996,18.999,30.996,0.996
		C1957.998,4682.998,2019.004,4638.999,2077.002,4596.001z M1492.998,4597.002c-60.996-81.001-97.998-144.004-152.998-260
		c-128.999-274.004-186.001-530-197.002-894.004L1137.002,3260H925H712.998l-5.996,38.999
		c-14.004,110,31.997,393.999,87.998,537.002c65,162.998,180,352.998,280,461.001c66.001,70,146.001,150.996,171.001,172.998
		C1352.002,4561.001,1475,4650,1510,4662.002C1537.998,4671.001,1532.002,4650,1492.998,4597.002z M1682.002,3955L1680,3260h-220
		h-220v132.998c0,267.002,33.999,491.001,110,719.004c67.998,203.999,97.002,261.997,212.998,437.998
		c56.001,83.999,72.002,100,101.001,100H1685L1682.002,3955z M1865,4593.999c22.002-30,45-60,50-66.997
		c10-12.002,27.002-42.002,79.004-141.001C2122.998,4142.998,2197.998,3770,2200,3372.998V3260h-207.998h-209.004l-5,122.998
		c-2.998,67.002-5.996,380-6.997,695L1767.998,4650h28.003C1819.004,4650,1832.998,4638.999,1865,4593.999z M587.002,2934.004
		C577.998,2852.002,511.001,2790,431.001,2790C350,2790,287.002,2837.998,270,2914.004C255,2980,253.999,2980,432.002,2980h160.996
		L587.002,2934.004z M1101.001,2967.998c6.997-85-35-150.996-112.002-177.998c-96.997-34.004-206.997,45.996-208.999,152.998V2980
		h160C1061.001,2980,1100,2977.002,1101.001,2967.998z M1521.001,2970.996l101.997-0.996l-5.996-45.996
		c-12.002-114.004-127.002-175-231.001-125c-50,25-82.002,70-92.002,130.996l-6.001,39.004l38.003,2.998
		c21.997,2.002,51.001,2.002,66.997,2.002C1407.998,2972.998,1466.001,2972.002,1521.001,2970.996z M2137.998,2940
		c4.004-32.998-35.996-109.004-68.994-132.998c-55-40-152.002-32.002-207.002,17.002c-39.004,33.994-66.001,118.994-45,140
		c3.994,2.998,77.002,5,162.002,3.994L2135,2965L2137.998,2940z M2650,2925.996c0-87.998-72.002-150-167.998-142.998
		c-82.998,6.006-140,60-149.004,141.006l-5.996,45.996h162.002H2650V2925.996z M3170,2927.998
		c0-55.996-29.004-102.002-79.004-127.998c-50.996-25-100.996-25.996-150,0c-47.998,24.004-77.998,60.996-86.992,105.996
		C2842.002,2970,2842.998,2970,3015,2970h155V2927.998z M1145,1892.998c-2.998-488.994-7.998-917.002-10-952.998
		c-2.002-35.996-3.999-117.998-5-182.002C1130,665,1127.002,640,1116.001,640c-7.002,0-20,7.002-27.002,17.002
		c-7.998,8.994-36.001,27.002-63.999,38.994c-87.002,41.006-203.999,28.008-282.002-31.992C723.999,650,706.001,640,703.999,642.998
		c-6.001,5,12.002,1717.002,20,1976.006c3.003,78.994,7.002,145.996,10,148.994c3.999,2.998,16.001-3.994,28.999-15
		c12.002-10.996,40-30,62.002-40.996c92.002-45,178.999-36.006,261.001,27.998c26.997,20.996,52.998,39.004,56.997,39.004
		C1147.998,2780,1148.999,2380.996,1145,1892.998z M323.999,2709.004C341.001,2700.996,382.002,2695,425,2695
		c62.002,0,80,4.004,137.998,35c36.001,19.004,68.003,32.002,71.001,30c6.001-7.002-21.997-1817.002-31.001-1984.004L595,637.002
		l-30,25C505,712.998,470,725,383.999,725c-73.999,0-85-2.998-132.998-32.002C222.002,675,196.001,660,192.998,660
		c-6.997,0,4.004,805,17.002,1325c5,197.998,10,447.998,11.001,555s3.999,202.998,6.997,212.002c4.004,15.996,7.002,15,36.001-5
		C281.001,2734.004,307.998,2717.002,323.999,2709.004z M1660,1707.002c0-585-2.998-1067.002-6.001-1070
		c-3.999-2.998-26.001,7.002-48.999,23.994c-62.002,45-126.001,61.006-196.001,50c-56.997-10-111.997-31.992-123.999-50.996
		c-2.998-5-16.001-15-27.002-20.996l-20.996-11.006l5.996,1057.998c4.004,649.004,11.001,1062.002,17.002,1068.008
		c6.001,5.996,22.002-1.006,45-18.008c50-38.994,97.002-55.996,152.002-55.996c52.998,0,136.997,34.004,166.997,69.004
		C1635,2760,1647.002,2770,1652.002,2770C1656.001,2770,1660,2290.996,1660,1707.002z M1793.999,2750.996
		c101.001-93.994,260.005-95,358.003-2.998c15,14.004,30.996,22.002,35,17.998c10-10,17.002-2135.996,7.002-2135.996
		c-4.004,0-31.006,15.996-60,35c-103.008,67.998-213.008,67.998-314.004-0.996C1792.998,645,1767.998,630,1765,630
		s-5,482.002-5,1070c0,589.004,2.998,1070,7.002,1070C1771.001,2770,1782.998,2760.996,1793.999,2750.996z M2715,2757.998
		c9.004-30,19.004-2127.002,10.996-2135.996c-3.994-2.998-15.996,3.994-28.994,15C2630,699.004,2500,727.002,2425,695.996
		c-22.002-8.994-57.002-28.994-77.998-42.998c-20-13.994-40-23.994-42.998-20.996c-11.006,10.996-20,2105.996-9.004,2117.002
		c2.998,2.998,14.004,0,22.998-7.002c60-42.002,114.004-62.002,170-62.002c67.998,0,111.006,15,166.006,59.004
		C2695.996,2772.998,2709.004,2777.002,2715,2757.998z M2905,2705c84.004-40.996,190.996-30.996,262.002,25
		c13.994,10.996,28.994,17.998,32.998,15s10-139.004,14.004-302.002c2.998-163.994,7.998-400.996,10.996-527.998
		c14.004-670.996,17.002-1275,7.002-1275c-6.006,0-27.998,10.996-47.998,25c-92.002,62.998-205,57.998-307.002-12.002
		c-20-13.994-39.004-23.994-41.006-22.002c-2.998,4.004-25.996,1790-25.996,2033.008v97.998l22.998-16.006
		C2845,2737.002,2877.998,2717.998,2905,2705z M442.998,625.996c45-18.994,74.004-47.998,92.002-88.994
		c17.002-41.006,20-132.998,5-142.002c-6.001-4.004-75-5.996-152.998-5.996C225,390,220,392.998,220,469.004
		C220,585,340,670,442.998,625.996z M967.002,615c20.996-9.004,45.996-22.998,56.997-32.998c28.003-25,56.001-91.006,56.001-134.004
		c0-70,3.999-67.998-161.001-67.998C751.001,380,750,380,750,462.002c0,32.002,7.998,57.002,30,90.996
		C796.001,579.004,811.001,600,812.002,600c1.997,0,20.996,7.002,42.998,15C907.002,632.998,922.998,632.998,967.002,615z
		 M1530,597.998c60-40.996,75-70.996,75-150.996V375l-150-2.002c-82.002-2.002-156.001,1.006-162.998,6.006
		C1270,392.998,1275,492.998,1300,539.004C1343.999,617.002,1458.999,645.996,1530,597.998z M2035.996,604.004
		C2107.002,574.004,2140,520,2140,430.996v-58.994L2102.998,365c-60-10-275.996,2.998-285,17.998c-12.002,19.004-8.994,95,6.006,130
		c23.994,57.002,90,104.004,146.992,106.006C1985.996,620,2015,612.998,2035.996,604.004z M2562.998,605.996
		c82.002-35,134.004-135.996,112.998-220L2670,360h-155c-174.004,0-175,0-175,79.004c0,75.996,34.004,130,105,161.992
		C2492.998,622.998,2520,624.004,2562.998,605.996z M3117.002,592.998c63.994-30,107.998-132.002,88.994-207.002L3200,360h-154.004
		h-152.998l-10.996,25c-29.004,62.002-1.006,150.996,60.996,195.996C2990,615,3060,620,3117.002,592.998z"/>
</g>
<path opacity="0.1" fill="#050000" d="M339.1,603.5c-3.3-0.5-4.1-1.1-4-2.8c0-1.2-0.199-11.9-0.5-23.7c-0.3-11.8-1-49.4-1.6-83.5
	s-1.5-79.1-2-100c-0.6-20.9-1-40.8-1-44.2V343h3.4c1.899,0,3.8-0.5,4.199-1.1c0.301-0.601,0.601-4.301,0.5-8.2
	c-0.199-8.5-1.899-12-7.899-16l-4.2-2.8v-11.4c0-18.6-4.9-38.3-14.4-57.5c-6-12-7.5-14.4-16-26c-18.3-25-46.5-46-84.6-63.1
	l-12.5-5.6l-0.6-5.4c-0.9-8-4.7-15.1-9.7-17.8c-2.9-1.5-2.8-2.6,0.399-5.8c4.801-4.8,8.301-11.5,10-19.2c1.5-6.5,1.5-8.6,0.5-14.6
	c-1.899-11-8.101-24.667-21.101-29L171,60.245v8.808c1.796-0.052,3.751,0.132,5.9,0.547c2.7,0.6,6,3.2,10,7.9c2,2.5,4.1,11.3,4,17.5
	c0,9.7-5.101,19.4-11.601,22.5c-1.899,0.902-5.239,1.33-8.3,1.317v513.176c34.122,0.352,71.527,0.507,116.2,0.507
	c44.6,0,45.7,0,48.399-2.1c5.801-4.301,6.9-6.801,7.2-16.9l0.4-9.3L339.1,603.5z M214,602.8l-3.7,0.7c-6,1-27.6-0.3-28.5-1.8
	c-1.2-1.9-0.899-9.5,0.601-13c2.399-5.7,9-10.4,14.699-10.601c1.5-0.1,4.4,0.601,6.5,1.5c7.101,3,10.4,8.4,10.4,17.301V602.8z
	 M219.4,577c-0.4,0-3.101-1.6-6-3.5c-10.301-6.8-21.301-6.8-31.4,0.1c-2.7,1.9-5.2,3.4-5.5,3.4s-0.5-48.2-0.5-107
	c0-58.9,0.3-107,0.7-107c0.4,0,1.6,0.9,2.7,1.9c10.1,9.399,26,9.5,35.8,0.3c1.5-1.4,3.1-2.2,3.5-1.8
	C219.7,364.4,220.4,577,219.4,577z M181.7,343.6c0.399-0.3,7.7-0.5,16.2-0.399l15.6,0.3l0.3,2.5c0.4,3.3-3.6,10.9-6.899,13.3
	c-5.5,4-15.2,3.2-20.7-1.7C182.3,354.2,179.6,345.7,181.7,343.6z M220,314h-20.8h-20.9l-0.5-12.3c-0.3-6.7-0.6-38-0.7-69.5
	l-0.3-57.2h2.8c2.3,0,3.7,1.1,6.9,5.6c2.2,3,4.5,6,5,6.7c1,1.2,2.7,4.2,7.9,14.1C212.3,225.7,219.8,263,220,302.7V314z M267.6,601.4
	L267,604h-15.5c-17.4,0-17.5,0-17.5-7.9c0-7.6,3.4-13,10.5-16.199c4.8-2.2,7.5-2.301,11.8-0.5C264.5,582.9,269.7,593,267.6,601.4z
	 M272.6,577.8c-0.399,0.3-1.6-0.399-2.899-1.5c-6.7-6.2-19.7-9-27.2-5.899c-2.2,0.899-5.7,2.899-7.8,4.3c-2,1.399-4,2.399-4.3,2.1
	c-1.101-1.1-2-210.6-0.9-211.7c0.3-0.3,1.4,0,2.3,0.7c6,4.2,11.4,6.2,17,6.2c6.8,0,11.101-1.5,16.601-5.9
	c4.199-3.399,5.5-3.8,6.1-1.899C272.4,367.2,273.4,576.9,272.6,577.8z M232.7,343h16.2H265v4.4c0,8.8-7.2,15-16.8,14.3
	c-8.3-0.601-14-6-14.9-14.101L232.7,343z M273.6,311.5L273,314h-21.4c-18.6,0-21.5-0.2-22-1.6c-0.3-0.9-0.6-7.7-0.6-15.2
	c0-34.5-8-71.9-20.8-97.7c-4.5-9-12.101-21.3-15.4-24.9c-1-1.1-1.8-2.8-1.8-3.8c0-1.9,0.1-1.9,3.1-0.1c1.7,1,7.801,5.4,13.601,9.7
	c32.3,24.2,55.2,59.3,62.7,96.1C272.3,285.8,274.3,308.5,273.6,311.5z M238,196.5c-5.8-6.1-21.6-20.6-23.9-22
	c-3.399-1.9-7.1-5.3-7.1-6.4c0-2.2,4.6-1,13,3.2c10.9,5.5,11.3,5.8,24.3,14.4c21.601,14.5,37.601,30.4,50.4,50
	c14.1,21.7,23.1,49.9,23.3,72.5v5.8h-17.4h-17.3l-0.7-4.6c-0.3-2.6-0.6-7.4-0.6-10.8c0-6.8-2.3-24-4.1-30.1
	C269.7,239.6,256.6,216.1,238,196.5z M317,343v4.2c0,5.6-2.9,10.2-7.9,12.8c-5.1,2.5-10.1,2.6-15,0c-4.8-2.4-7.8-6.1-8.699-10.6
	c-1.2-6.4-1.101-6.4,16.1-6.4H317z M320.6,601.4L320,604h-15.4h-15.3l-1.1-2.5c-2.9-6.2-0.101-15.1,6.1-19.6
	c4.7-3.4,11.7-3.9,17.4-1.2C318.1,583.7,322.5,593.9,320.6,601.4z M323.2,576c-0.601,0-2.8-1.1-4.8-2.5c-9.2-6.3-20.5-5.8-30.7,1.2
	c-2,1.399-3.9,2.399-4.101,2.2c-0.3-0.4-2.6-179-2.6-203.301v-9.8l2.3,1.601c1.2,0.899,4.5,2.8,7.2,4.1c8.4,4.1,19.1,3.1,26.2-2.5
	c1.399-1.1,2.899-1.8,3.3-1.5s1,13.9,1.4,30.2c0.3,16.399,0.8,40.1,1.1,52.8C323.9,515.6,324.2,576,323.2,576z"/>
</svg>
