<?xml version="1.0" encoding="utf-8"?>
<!-- Generator: Adobe Illustrator 16.0.0, SVG Export Plug-In . SVG Version: 6.00 Build 0)  -->
<!DOCTYPE svg PUBLIC "-//W3C//DTD SVG 1.1//EN" "http://www.w3.org/Graphics/SVG/1.1/DTD/svg11.dtd">
<svg version="1.1" id="Layer_1" xmlns="http://www.w3.org/2000/svg" xmlns:xlink="http://www.w3.org/1999/xlink" x="0px" y="0px"
	 width="24px" height="24px" viewBox="0 0 24 24" enable-background="new 0 0 24 24" xml:space="preserve">
<g transform="translate(0.000000,640.000000) scale(0.100000,-0.100000)">
	<path fill="#BABABA" d="M112.314,6381.083c-3.643-1.47-6.191-5.41-7.109-8.755c-1.27-4.551-0.293-8.413,3.022-12.227
		c1.006-1.143,1.855-2.319,1.855-2.573c0-0.293-0.767-1.177-1.689-2.021c-1.802-1.689-2.944-4.336-2.944-6.904
		c0-1.65-0.288-1.987-2.52-2.72c-5.337-1.758-19.658-8.633-20.088-9.619c-0.088-0.156-0.337-0.298-0.542-0.298
		c-0.215,0-0.718-0.215-1.094-0.518c-0.425-0.288-2.275-1.606-4.121-2.896c-6.509-4.551-13.447-11.538-17.529-17.666
		c-4.121-6.143-7.183-14.702-7.944-22.08c-0.327-3.306-0.586-4.512-1.084-4.78c-3.115-1.724-4.038-3.56-3.828-7.52l0.122-2.388
		l1.597-0.112l1.641-0.103l-0.283-9.985c-0.132-5.518-0.425-15.889-0.64-23.027c-0.205-7.178-0.508-19.15-0.635-26.65
		c-0.62-37.354-0.449-35.508-2.52-35.4c-1.89,0.117-1.89,0.078-1.89-3.525c0-2.568,0.122-3.486,0.552-3.486
		c0.293,0,0.708-0.381,0.918-0.811c0.254-0.439,0.928-1.143,1.597-1.553c1.05-0.693,2.017-0.771,11.558-1.016
		c33.247-0.898,60.776-1.221,106.089-1.221c18.74,0,19.18,0,20.332,0.771c2.441,1.582,2.891,2.5,3.027,6.221l0.166,3.398
		l-1.709,0.273c-1.396,0.166-1.738,0.4-1.699,1.025c0,0.439-0.078,4.365-0.205,8.691c-0.127,4.336-0.42,18.154-0.674,30.684
		c-0.264,12.529-0.625,29.033-0.83,36.719c-0.244,7.686-0.42,14.985-0.42,16.23v2.314h1.416c0.801,0,1.592,0.186,1.777,0.41
		c0.117,0.229,0.234,1.577,0.215,3.013c-0.098,3.125-0.83,4.404-3.33,5.874l-1.758,1.03v4.189c0,6.831-2.07,14.067-6.064,21.123
		c-2.51,4.409-3.154,5.288-6.719,9.551c-7.705,9.175-19.551,16.885-35.557,23.179l-5.264,2.051l-0.249,1.982
		c-0.366,2.939-1.968,5.547-4.072,6.543c-1.221,0.542-1.177,0.947,0.166,2.119c2.017,1.768,3.496,4.229,4.209,7.056
		c0.625,2.393,0.625,3.159,0.205,5.371c-0.796,4.033-3.403,9.058-8.867,10.645 M118.442,6377.988
		c1.128-0.229,2.52-1.177,4.199-2.905c0.85-0.923,1.724-4.146,1.685-6.426c0-3.56-2.153-7.124-4.878-8.267
		c-1.689-0.693-6.05-0.62-6.353,0.117c-0.073,0.249-0.332,0.435-0.581,0.435c-1.226,0-3.579,4.077-3.906,6.836
		c-0.332,2.754,0.327,5.356,1.919,7.529C112.383,6377.832,114.736,6378.618,118.442,6377.988z M103.35,6341.772
		c0-0.259-1.641-1.509-3.701-2.764c-12.183-7.524-22.017-19.17-26.514-31.367c-1.646-4.399-2.983-11.45-2.983-15.493
		c0-2.754-0.127-3.232-0.806-3.56c-0.874-0.405-11.382-0.513-13.022-0.112c-1.011,0.22-1.011,0.22-0.752,4.292
		c0.664,11.836,7.266,23.511,19.028,33.755c2.275,1.948,4.287,3.569,4.502,3.569c0.21,0,0.718,0.293,1.089,0.659
		c0.381,0.327,2.192,1.543,4.038,2.646c1.846,1.06,3.447,2.051,3.569,2.168c0.347,0.366,2.646,1.499,4.326,2.158
		c0.85,0.332,1.558,0.742,1.558,0.879c0,0.19,0.171,0.303,0.381,0.303s2.148,0.728,4.336,1.65
		C102.51,6342.285,103.35,6342.5,103.35,6341.772z M136.553,6340.629c4.59-2.026,4.746-2.124,10.205-5.288
		c9.082-5.322,15.811-11.167,21.191-18.369c5.908-7.964,9.727-18.32,9.775-26.626v-2.129h-7.305h-7.266l-0.293,1.694
		c-0.117,0.952-0.244,2.715-0.244,3.96c0,2.495-0.986,8.813-1.729,11.06c-3.447,10.61-8.945,19.243-16.777,26.45
		c-2.432,2.231-9.072,7.559-10.029,8.071c-1.426,0.703-2.998,1.948-2.998,2.358C131.084,6342.617,133.008,6342.172,136.553,6340.629
		z M131.387,6337.29c13.564-8.892,23.203-21.777,26.348-35.293c0.801-3.423,1.65-11.758,1.357-12.852l-0.273-0.928h-8.994
		c-7.812,0-9.023,0.078-9.238,0.586c-0.137,0.342-0.264,2.837-0.264,5.591c0,12.661-3.35,26.401-8.73,35.879
		c-1.89,3.306-5.083,7.822-6.465,9.146c-0.43,0.4-0.762,1.03-0.762,1.396c0,0.698,0.039,0.698,1.304,0.034
		C126.377,6340.483,128.945,6338.876,131.387,6337.29z M106.846,6337.329c-2.573-2.974-4.121-5.288-6.44-9.556
		c-5.41-10.063-7.817-19.458-8.281-32.832l-0.249-6.724h-8.911h-8.906l-0.254,1.431c-0.581,4.043,1.348,14.473,3.706,19.727
		c2.725,5.986,7.559,12.969,11.763,16.934c2.769,2.573,6.128,5.542,7.183,6.357c4.458,3.34,9.629,6.606,11.099,7.046
		C108.73,6340.043,108.477,6339.272,106.846,6337.329z M114.78,6313.75l-0.078-25.532h-9.253h-9.238v4.883
		c0,9.81,1.421,18.037,4.619,26.411c2.856,7.495,4.082,9.624,8.95,16.084c2.354,3.091,3.027,3.677,4.243,3.677h0.884L114.78,6313.75
		z M122.471,6337.211c0.928-1.104,1.895-2.202,2.1-2.456c0.42-0.439,1.143-1.543,3.325-5.176c5.415-8.931,8.56-22.632,8.657-37.217
		v-4.146h-8.745h-8.784l-0.21,4.521c-0.122,2.461-0.249,13.955-0.288,25.518l-0.127,21.016h1.172
		C120.537,6339.272,121.133,6338.876,122.471,6337.211z M68.76,6276.25c-0.371-3.018-3.188-5.303-6.553-5.303
		c-3.398,0-6.05,1.782-6.772,4.561c-0.62,2.427-0.659,2.427,6.812,2.427h6.768L68.76,6276.25z M90.361,6277.495
		c0.293-3.12-1.475-5.547-4.702-6.548c-4.077-1.25-8.706,1.704-8.784,5.63v1.357h6.719
		C88.682,6277.934,90.322,6277.827,90.361,6277.495z M108.018,6277.602l4.277-0.044l-0.244-1.689
		c-0.503-4.175-5.342-6.416-9.712-4.58c-2.1,0.923-3.447,2.573-3.862,4.8l-0.254,1.436l1.602,0.112
		c0.923,0.073,2.144,0.073,2.812,0.073C103.271,6277.685,105.698,6277.636,108.018,6277.602z M133.945,6276.464
		c0.166-1.221-1.504-3.999-2.9-4.888c-2.31-1.46-6.387-1.177-8.701,0.635c-1.636,1.25-2.773,4.365-1.89,5.132
		c0.166,0.107,3.237,0.181,6.807,0.151l6.558-0.107L133.945,6276.464z M155.469,6275.947c0-3.218-3.027-5.513-7.07-5.249
		c-3.486,0.22-5.869,2.207-6.279,5.171l-0.234,1.689h6.807h6.777V6275.947z M177.324,6276.03c0-2.065-1.221-3.755-3.34-4.707
		c-2.139-0.923-4.229-0.952-6.289,0c-2.012,0.889-3.281,2.251-3.643,3.906c-0.527,2.329-0.488,2.329,6.758,2.329h6.514V6276.03z
		 M92.212,6238.007c-0.127-17.959-0.337-33.682-0.415-35.01c-0.083-1.318-0.171-4.326-0.21-6.689c0-3.408-0.132-4.326-0.596-4.326
		c-0.288,0-0.835,0.264-1.128,0.625c-0.337,0.332-1.509,0.996-2.7,1.436c-3.647,1.523-8.569,1.025-11.855-1.162
		c-0.791-0.537-1.548-0.898-1.626-0.771c-0.254,0.186,0.503,63.057,0.835,72.568c0.127,2.891,0.303,5.347,0.425,5.474
		c0.166,0.112,0.674-0.161,1.216-0.562c0.508-0.391,1.68-1.104,2.603-1.494c3.872-1.66,7.529-1.318,10.977,1.025
		c1.133,0.762,2.227,1.426,2.388,1.426C92.344,6270.585,92.388,6255.937,92.212,6238.007z M57.71,6267.978
		c0.708-0.293,2.432-0.518,4.238-0.518c2.607,0,3.359,0.156,5.806,1.289c1.519,0.703,2.856,1.182,2.983,1.104
		c0.254-0.264-0.923-66.738-1.304-72.871l-0.337-5.117l-1.26,0.938c-2.529,1.865-3.989,2.295-7.612,2.295
		c-3.105,0-3.569-0.098-5.581-1.152c-1.226-0.674-2.314-1.23-2.441-1.23c-0.293,0,0.171,29.58,0.718,48.672
		c0.215,7.266,0.42,16.455,0.459,20.4c0.039,3.916,0.166,7.441,0.288,7.783c0.176,0.581,0.303,0.547,1.519-0.186
		C55.898,6268.896,57.031,6268.281,57.71,6267.978z M113.857,6231.171c0-21.484-0.127-39.189-0.249-39.307
		c-0.161-0.098-1.094,0.264-2.061,0.889c-2.612,1.67-5.293,2.246-8.237,1.836c-2.397-0.361-4.707-1.172-5.215-1.875
		c-0.122-0.186-0.674-0.537-1.133-0.762l-0.884-0.391l0.254,38.838c0.166,23.857,0.469,39.004,0.708,39.219
		c0.254,0.234,0.933-0.029,1.895-0.654c2.104-1.426,4.082-2.061,6.392-2.061c2.227,0,5.757,1.26,7.012,2.549
		c0.469,0.4,0.977,0.767,1.182,0.767C113.691,6270.219,113.857,6252.626,113.857,6231.171z M119.492,6269.521
		c4.248-3.447,10.918-3.486,15.039-0.117c0.635,0.527,1.318,0.815,1.484,0.669c0.41-0.376,0.693-78.462,0.293-78.462
		c-0.166,0-1.309,0.596-2.539,1.289c-4.321,2.49-8.94,2.49-13.193-0.02c-1.128-0.703-2.178-1.27-2.305-1.27
		c-0.132,0-0.21,17.705-0.21,39.316c0,21.641,0.122,39.292,0.293,39.292S119.023,6269.882,119.492,6269.521z M158.203,6269.775
		c0.361-1.104,0.801-78.125,0.459-78.457c-0.176-0.107-0.674,0.156-1.221,0.547c-2.812,2.285-8.271,3.311-11.426,2.178
		c-0.928-0.322-2.412-1.064-3.271-1.572c-0.859-0.518-1.699-0.889-1.816-0.781c-0.479,0.42-0.85,77.354-0.391,77.764
		c0.137,0.117,0.605,0,0.977-0.254c2.52-1.543,4.805-2.295,7.148-2.295c2.852,0,4.658,0.557,6.973,2.188
		C157.393,6270.327,157.949,6270.478,158.203,6269.775z M166.191,6267.841c3.525-1.523,8.018-1.143,10.996,0.908
		c0.596,0.4,1.23,0.654,1.387,0.547c0.176-0.098,0.42-5.098,0.605-11.094c0.117-6.006,0.322-14.727,0.449-19.375
		c0.586-24.648,0.703-46.846,0.303-46.846c-0.244,0-1.182,0.41-2.021,0.918c-3.867,2.314-8.623,2.129-12.91-0.43
		c-0.83-0.518-1.65-0.889-1.729-0.82c-0.117,0.137-1.084,65.771-1.084,74.668v3.613l0.967-0.596
		C163.662,6269.013,165.039,6268.31,166.191,6267.841z M62.71,6191.474c1.895-0.713,3.115-1.758,3.872-3.271
		c0.708-1.514,0.835-4.883,0.205-5.215c-0.249-0.146-3.149-0.225-6.431-0.225c-6.812,0.049-7.017,0.156-7.017,2.959
		C53.34,6189.96,58.379,6193.095,62.71,6191.474z M84.736,6191.074c0.879-0.342,1.934-0.859,2.393-1.211
		c1.182-0.918,2.349-3.35,2.349-4.941c0-2.559,0.171-2.49-6.763-2.49c-7.056,0-7.1,0-7.1,3.008c0,1.182,0.332,2.1,1.26,3.359
		c0.669,0.938,1.304,1.729,1.353,1.729c0.078,0,0.874,0.234,1.802,0.547C82.207,6191.728,82.886,6191.728,84.736,6191.074z
		 M108.394,6190.449c2.52-1.504,3.154-2.607,3.154-5.557v-2.637l-6.304-0.068c-3.442-0.078-6.562,0.029-6.846,0.225
		c-0.933,0.508-0.718,4.17,0.327,5.859C100.576,6191.142,105.405,6192.207,108.394,6190.449z M129.663,6190.664
		c2.993-1.113,4.37-3.096,4.37-6.357v-2.168l-1.543-0.244c-2.534-0.381-11.611,0.098-11.992,0.645
		c-0.503,0.703-0.366,3.496,0.244,4.795c1.016,2.09,3.794,3.809,6.191,3.877C127.563,6191.259,128.779,6190.996,129.663,6190.664z
		 M151.807,6190.732c3.447-1.279,5.635-4.99,4.736-8.076l-0.225-0.957h-6.533c-7.305,0-7.344,0-7.344,2.91
		c0,2.793,1.416,4.766,4.414,5.947C148.877,6191.367,149.98,6191.396,151.807,6190.732z M175.107,6190.263
		c2.676-1.113,4.521-4.844,3.73-7.607l-0.264-0.957H172.1h-6.416l-0.469,0.918c-1.23,2.275-0.049,5.557,2.568,7.207
		C169.756,6191.074,172.695,6191.259,175.107,6190.263z"/>
</g>
<path opacity="0.1" fill="#050000" enable-background="new    " d="M18.662,21.811c-0.14-0.017-0.174-0.04-0.17-0.103
	c0-0.044-0.008-0.437-0.021-0.869c-0.013-0.434-0.042-1.815-0.067-3.068c-0.026-1.253-0.062-2.903-0.083-3.672
	c-0.024-0.769-0.042-1.499-0.042-1.623v-0.231h0.142c0.08,0,0.159-0.019,0.178-0.041c0.012-0.023,0.023-0.158,0.021-0.301
	c-0.01-0.312-0.083-0.44-0.333-0.587l-0.176-0.103v-0.419c0-0.683-0.207-1.407-0.606-2.112c-0.251-0.441-0.315-0.529-0.672-0.955
	c-0.771-0.917-1.955-1.688-3.556-2.318l-0.526-0.205l-0.025-0.198c-0.037-0.294-0.197-0.555-0.407-0.654
	c-0.122-0.054-0.118-0.095,0.017-0.212c0.202-0.177,0.35-0.423,0.421-0.706c0.062-0.239,0.062-0.316,0.021-0.537
	c-0.08-0.403-0.34-0.906-0.887-1.064l-0.293,0.027v0.323c0.076-0.002,0.158,0.005,0.248,0.02c0.113,0.023,0.252,0.118,0.42,0.291
	c0.085,0.092,0.172,0.415,0.168,0.643c0,0.356-0.215,0.712-0.488,0.827c-0.08,0.033-0.22,0.049-0.349,0.048v18.848
	c1.433,0.014,3.007,0.02,4.884,0.02c1.874,0,1.918,0,2.033-0.077c0.244-0.158,0.289-0.25,0.302-0.622l0.018-0.34L18.662,21.811z
	 M13.403,21.786l-0.154,0.024c-0.253,0.038-1.161-0.01-1.199-0.064c-0.05-0.07-0.037-0.35,0.024-0.479
	c0.102-0.209,0.379-0.381,0.619-0.388c0.063-0.005,0.185,0.021,0.273,0.055c0.299,0.111,0.437,0.31,0.437,0.636V21.786z
	 M13.631,20.839c-0.017,0-0.131-0.06-0.254-0.129c-0.432-0.249-0.894-0.249-1.319,0.002c-0.113,0.07-0.218,0.127-0.23,0.127
	c-0.013,0-0.021-1.771-0.021-3.932c0-2.164,0.012-3.929,0.029-3.929s0.067,0.034,0.114,0.07c0.425,0.345,1.092,0.349,1.504,0.012
	c0.063-0.053,0.132-0.082,0.148-0.067C13.643,13.03,13.671,20.839,13.631,20.839z M12.045,12.266
	c0.017-0.011,0.324-0.018,0.681-0.015l0.656,0.011l0.013,0.092c0.017,0.122-0.15,0.4-0.29,0.489
	c-0.231,0.146-0.639,0.118-0.87-0.063C12.071,12.654,11.957,12.342,12.045,12.266z M13.655,11.178h-0.875h-0.878l-0.021-0.452
	c-0.012-0.246-0.025-1.396-0.029-2.552L11.84,6.073h0.117c0.097,0,0.156,0.04,0.29,0.206c0.093,0.11,0.189,0.22,0.21,0.246
	c0.042,0.044,0.114,0.154,0.333,0.518c0.542,0.893,0.856,2.263,0.866,3.722V11.178z M15.654,21.734l-0.022,0.096h-0.653
	c-0.73,0-0.734,0-0.734-0.291c0-0.279,0.142-0.477,0.441-0.595c0.202-0.081,0.312-0.084,0.495-0.018
	C15.525,21.055,15.744,21.426,15.654,21.734z M15.866,20.868c-0.018,0.011-0.067-0.016-0.122-0.055
	c-0.281-0.229-0.827-0.331-1.143-0.218c-0.093,0.032-0.241,0.106-0.327,0.157c-0.086,0.052-0.17,0.089-0.182,0.078
	c-0.048-0.042-0.085-7.735-0.037-7.776c0.012-0.012,0.059,0,0.096,0.025c0.252,0.154,0.48,0.229,0.715,0.229
	c0.285,0,0.466-0.056,0.698-0.217c0.175-0.125,0.23-0.141,0.256-0.07C15.856,13.133,15.9,20.835,15.866,20.868z M14.188,12.244
	h0.681h0.678v0.161c0,0.322-0.303,0.551-0.707,0.525c-0.349-0.022-0.587-0.221-0.628-0.517L14.188,12.244z M15.909,11.086
	l-0.027,0.093h-0.899c-0.781,0-0.902-0.008-0.924-0.059c-0.014-0.034-0.026-0.284-0.026-0.559c0-1.266-0.335-2.64-0.873-3.588
	c-0.189-0.331-0.508-0.782-0.646-0.915c-0.043-0.04-0.076-0.103-0.076-0.14c0-0.07,0.004-0.07,0.13-0.003
	c0.071,0.037,0.328,0.197,0.572,0.356c1.356,0.889,2.32,2.178,2.635,3.529C15.854,10.143,15.938,10.976,15.909,11.086z
	 M14.411,6.862c-0.243-0.223-0.907-0.756-1.003-0.807c-0.143-0.07-0.3-0.195-0.3-0.236c0-0.081,0.192-0.036,0.547,0.118
	c0.459,0.203,0.475,0.212,1.021,0.529c0.908,0.532,1.581,1.117,2.119,1.837c0.591,0.796,0.973,1.832,0.978,2.663v0.213h-0.73h-0.727
	l-0.029-0.169c-0.012-0.095-0.024-0.271-0.024-0.396c0-0.25-0.099-0.881-0.173-1.106C15.744,8.446,15.194,7.583,14.411,6.862z
	 M17.732,12.244v0.153c0,0.207-0.122,0.375-0.334,0.471c-0.214,0.092-0.423,0.095-0.629,0c-0.201-0.089-0.328-0.225-0.364-0.391
	c-0.053-0.233-0.049-0.233,0.676-0.233H17.732z M17.884,21.734l-0.026,0.096H17.21h-0.642l-0.047-0.092
	c-0.123-0.228-0.005-0.556,0.257-0.721c0.197-0.125,0.491-0.144,0.732-0.044C17.778,21.085,17.963,21.458,17.884,21.734z
	 M17.993,20.802c-0.024,0-0.118-0.041-0.202-0.092c-0.387-0.231-0.862-0.213-1.291,0.043c-0.083,0.052-0.165,0.089-0.173,0.082
	c-0.012-0.014-0.108-6.577-0.108-7.467v-0.361l0.097,0.06c0.051,0.032,0.188,0.103,0.304,0.149c0.353,0.152,0.802,0.114,1.1-0.091
	c0.06-0.04,0.123-0.065,0.139-0.055c0.018,0.01,0.042,0.51,0.061,1.109c0.012,0.601,0.032,1.473,0.045,1.938
	C18.021,18.582,18.033,20.802,17.993,20.802z"/>
</svg>
