<?xml version="1.0" encoding="utf-8"?>
<!-- Generator: Adobe Illustrator 16.0.0, SVG Export Plug-In . SVG Version: 6.00 Build 0)  -->
<!DOCTYPE svg PUBLIC "-//W3C//DTD SVG 1.1//EN" "http://www.w3.org/Graphics/SVG/1.1/DTD/svg11.dtd">
<svg version="1.1" xmlns="http://www.w3.org/2000/svg" xmlns:xlink="http://www.w3.org/1999/xlink" x="0px" y="0px" width="512px"
	 height="512px" viewBox="0 0 512 512" enable-background="new 0 0 512 512" xml:space="preserve">
<g id="Layer_6" display="none">
	<rect display="inline" fill="#EA3469" width="512" height="512"/>
</g>
<g id="Icon_x5F_template_1_" display="none">
	
		<image display="inline" overflow="visible" width="384" height="384" xlink:href="../../../../Desktop/material_design_icon_template.png"  transform="matrix(1.3333 0 0 1.3333 -0.3975 0.3389)">
	</image>
</g>
<g id="BG" display="none">
	<g display="inline">
		
			<image overflow="visible" width="2258" height="2258" xlink:href="887481326E05E4A9.png"  transform="matrix(0.24 0 0 0.24 -14.9116 -12.9116)">
		</image>
	</g>
	<circle display="inline" fill="#FFFFFF" cx="256" cy="256" r="234.912"/>
</g>
<g id="Icon_x5F_template" display="none">
	
		<image display="inline" overflow="visible" width="1355" height="1600" xlink:href="../../../../Desktop/TweetyTemplate.png"  transform="matrix(0.2327 0 0 0.2314 98.3096 70.8657)">
	</image>
</g>
<g id="Shadow" display="none">
	<path display="inline" stroke="#231F20" stroke-miterlimit="10" d="M149,393.667"/>
</g>
<g id="body">
	<path fill="#FFFFFF" stroke="#231F20" stroke-miterlimit="10" d="M268.657,277.715"/>
	<g>
		
			<image overflow="visible" opacity="0.2" width="1366" height="1409" xlink:href="887481326E05E4A8.png"  transform="matrix(0.24 0 0 0.24 92.1826 91.0039)">
		</image>
		<g>
			<path fill="#231F20" d="M212.675,309.852c0,0-11.33-16.924-22.871-26.598c0,0-17.693-20.026-21.087-29.191
				c0,0-10.034-24.779-9.016-39.883c0,0,1.687-32.246,11.36-47.86s10.348-17.82,18.324-26.306c0,0,15.272-15.104,22.569-19.856
				c0,0,20.365-12.898,36.997-17.481c0,0,17.649-4.413,32.245-3.564c0,0,14.935,1.358,21.214,3.225c0,0,19.518,5.431,22.912,7.637
				c0,0,16.972,8.316,19.178,9.844c0,0,18.329,13.238,19.008,14.086c0,0,14.257,13.068,15.614,15.444
				c0,0,12.39,15.954,13.407,18.838c0,0,6.789,12.05,7.977,15.784c0,0,4.752,15.105,5.601,19.857c0,0,1.867,11.71,1.697,15.444
				c0,0,0.17,9.844-0.679,14.935c0,0-2.376,12.898-4.243,15.784c0,0-4.242,9.673-5.601,11.88c0,0-6.109,9.504-7.807,11.371
				c0,0-7.977,8.146-9.674,9.843l-11.031,12.56l-4.922,5.261l-3.903,4.922c0,0-4.243,4.073,0.339,6.789c0,0,3.225,4.582,3.564,6.618
				c0,0,1.697,3.903,1.019,7.298c0,0-0.51,3.055-1.527,5.94c0,0-2.886,4.752-4.243,6.109l-1.019,1.358c0,0,12.56-2.376,17.65-4.413
				c0,0,3.903-1.357,4.752,1.188c0,0,0.849,3.055-0.339,5.431c0,0-3.903,6.279-5.432,7.468c0,0-6.448,5.77-9.164,7.807
				c0,0-9.334,6.279-16.123,7.468c0,0,1.867,0.339,0.679,2.206c0,0-4.243,5.601-7.128,6.619c0,0-7.128,4.492-10.861,5.172
				c0,0-5.602,1.115-9.844,2.115h-4.752c0,0-1.867,1.617-3.564,2.637c0,0-3.903,1.826-6.788,2.675c0,0-6.11,1.932-9.335,2.271
				c0,0-7.637,0.116-9.504-0.223c0,0-6.279-1.553-7.128-2.062c0,0-3.395,4.738-6.619,7.284c0,0-3.225,2.879-5.431,4.236
				c0,0-7.298,4.409-10.353,5.428c0,0-8.146,2.374-10.014,2.544c0,0-11.031,2.035-13.238,1.356c0,0-2.376,0.17-3.055,0
				c0,0-3.225,1.697-6.789,2.546c0,0-26.815,3.903-30.379,3.225c0,0-15.953-0.679-20.366-2.716c0,0-14.596-4.752-18.329-9.164
				c0,0-9.844-9.335-11.541-13.068c0,0-3.903-11.541-2.545-17.99c0,0,1.697-10.691,4.582-14.426c0,0,4.922-7.637,6.958-8.995
				c0,0-15.105-3.563-17.481-5.77c0,0-10.692-6.789-14.426-10.862c0,0-7.467-8.316-10.183-13.577c0,0-3.734-10.014-4.583-13.577
				c0,0-2.376-13.747-3.225-21.894c0,0,5.771,10.183,7.128,11.71c0,0,6.619,6.11,8.995,7.129c0,0,12.389,5.261,13.747,5.939
				c0,0,8.146,4.922,10.183,7.468c0,0,7.977,8.485,9.334,12.39c0,0,3.055,7.467,3.225,9.843c0,0,1.867,6.789,1.867,8.486
				c0,0,5.431-2.716,10.353-2.546c0,0,7.128-0.509,10.692,0.509c0,0,0.339-3.903,1.358-4.922c0,0-5.771-7.977-6.449-10.183
				c0,0-3.395-9.504-3.225-11.541c0,0-0.509-7.977,0.169-9.334c0,0,0.849-5.771,2.037-6.958c0,0,0.849-2.376,1.697-3.225
				c0,0,1.867-2.546,5.091,2.036c0,0,5.092,6.279,5.431,6.789c0,0,4.413,6.279,6.958,8.825c0,0,7.977,9.334,9.674,10.353
				c0,0,7.977,8.146,10.862,9.674c0,0,10.013,6.958,13.068,7.977c0,0,13.577,6.279,15.444,7.128c0,0,10.692,4.582,12.898,6.619
				c0,0,4.582,3.225,5.261,4.922c0,0,3.903-5.601,1.697-9.335c0,0-8.995-4.412-11.71-5.091c0,0-11.371-3.564-12.898-4.243
				c0,0-7.637-3.733-10.013-5.431c0,0-6.619-5.771-8.316-7.808c0,0-2.885-4.922-3.734-7.298c0,0-1.697-9.504-1.357-12.898
				L212.675,309.852z"/>
		</g>
	</g>
	<path fill="#FFFFFF" d="M212.675,309.852c0,0-11.33-16.924-22.871-26.598c0,0-17.693-20.026-21.087-29.191
		c0,0-10.034-24.779-9.016-39.883c0,0,1.687-32.246,11.36-47.86s10.348-17.82,18.324-26.306c0,0,15.272-15.104,22.569-19.856
		c0,0,20.365-12.898,36.997-17.481c0,0,17.649-4.413,32.245-3.564c0,0,14.935,1.358,21.214,3.225c0,0,19.518,5.431,22.912,7.637
		c0,0,16.972,8.316,19.178,9.844c0,0,18.329,13.238,19.008,14.086c0,0,14.257,13.068,15.614,15.444c0,0,12.39,15.954,13.407,18.838
		c0,0,6.789,12.05,7.977,15.784c0,0,4.752,15.105,5.601,19.857c0,0,1.867,11.71,1.697,15.444c0,0,0.17,9.844-0.679,14.935
		c0,0-2.376,12.898-4.243,15.784c0,0-4.242,9.673-5.601,11.88c0,0-6.109,9.504-7.807,11.371c0,0-7.977,8.146-9.674,9.843
		l-11.031,12.56l-4.922,5.261l-3.903,4.922c0,0-4.243,4.073,0.339,6.789c0,0,3.225,4.582,3.564,6.618c0,0,1.697,3.903,1.019,7.298
		c0,0-0.51,3.055-1.527,5.94c0,0-2.886,4.752-4.243,6.109l-1.019,1.358c0,0,12.56-2.376,17.65-4.413c0,0,3.903-1.357,4.752,1.188
		c0,0,0.849,3.055-0.339,5.431c0,0-3.903,6.279-5.432,7.468c0,0-6.448,5.77-9.164,7.807c0,0-9.334,6.279-16.123,7.468
		c0,0,1.867,0.339,0.679,2.206c0,0-4.243,5.601-7.128,6.619c0,0-7.128,4.492-10.861,5.172c0,0-5.602,1.115-9.844,2.115h-4.752
		c0,0-1.867,1.617-3.564,2.637c0,0-3.903,1.826-6.788,2.675c0,0-6.11,1.932-9.335,2.271c0,0-7.637,0.116-9.504-0.223
		c0,0-6.279-1.553-7.128-2.062c0,0-3.395,4.738-6.619,7.284c0,0-3.225,2.879-5.431,4.236c0,0-7.298,4.409-10.353,5.428
		c0,0-8.146,2.374-10.014,2.544c0,0-11.031,2.035-13.238,1.356c0,0-2.376,0.17-3.055,0c0,0-3.225,1.697-6.789,2.546
		c0,0-26.815,3.903-30.379,3.225c0,0-15.953-0.679-20.366-2.716c0,0-14.596-4.752-18.329-9.164c0,0-9.844-9.335-11.541-13.068
		c0,0-3.903-11.541-2.545-17.99c0,0,1.697-10.691,4.582-14.426c0,0,4.922-7.637,6.958-8.995c0,0-15.105-3.563-17.481-5.77
		c0,0-10.692-6.789-14.426-10.862c0,0-7.467-8.316-10.183-13.577c0,0-3.734-10.014-4.583-13.577c0,0-2.376-13.747-3.225-21.894
		c0,0,5.771,10.183,7.128,11.71c0,0,6.619,6.11,8.995,7.129c0,0,12.389,5.261,13.747,5.939c0,0,8.146,4.922,10.183,7.468
		c0,0,7.977,8.485,9.334,12.39c0,0,3.055,7.467,3.225,9.843c0,0,1.867,6.789,1.867,8.486c0,0,5.431-2.716,10.353-2.546
		c0,0,7.128-0.509,10.692,0.509c0,0,0.339-3.903,1.358-4.922c0,0-5.771-7.977-6.449-10.183c0,0-3.395-9.504-3.225-11.541
		c0,0-0.509-7.977,0.169-9.334c0,0,0.849-5.771,2.037-6.958c0,0,0.849-2.376,1.697-3.225c0,0,1.867-2.546,5.091,2.036
		c0,0,5.092,6.279,5.431,6.789c0,0,4.413,6.279,6.958,8.825c0,0,7.977,9.334,9.674,10.353c0,0,7.977,8.146,10.862,9.674
		c0,0,10.013,6.958,13.068,7.977c0,0,13.577,6.279,15.444,7.128c0,0,10.692,4.582,12.898,6.619c0,0,4.582,3.225,5.261,4.922
		c0,0,3.903-5.601,1.697-9.335c0,0-8.995-4.412-11.71-5.091c0,0-11.371-3.564-12.898-4.243c0,0-7.637-3.733-10.013-5.431
		c0,0-6.619-5.771-8.316-7.808c0,0-2.885-4.922-3.734-7.298c0,0-1.697-9.504-1.357-12.898L212.675,309.852z"/>
</g>
<g id="legs" display="none">
	<path display="inline" fill="#F8D515" d="M216.833,327.833c0,0-4.334,4.5-4.667,9.667c0,0-2.833,2-6.167,2.5c0,0-1.5-5.833-4-7.5
		c0,0-5.499-4.414-13.082-4.248c0,0-13.083-0.417-19.667,1.75c0,0-16.667,3.836-24.333,7.669c0,0-13.333,5.666-16.333,7.833
		c0,0-8.083,4.918-11.833,8.418c0,0-7,7.249-8.5,9.666c0,0-4.666,6.751-5.916,11.001c0,0-3.25,6.499-2.917,13.583
		c0,0-0.583,6.416,2.583,13.25c0,0,3.333,6.417,7.917,9.667c0,0,3.917,3,7.667,3.75c0,0,3.25,0.751,5.75,0.667
		c0,0-1.333,1.166,0.083,2.333c0,0,4.083,3.251,6,3.917c0,0,4.499,2.334,9.249,2.334c0,0,6.833,0.334,10.333-0.833
		c0,0,7.167-1.417,10.583-3.667c0,0,5.333-2.666,9-6.083c0,0,5.417-6.166,6.667-8.5c0,0,3.416-6.75,4.333-9.25
		c0,0,2.917-7.251,3.25-8.584c0,0,2.917-6.082,3.833-7.749c0,0,3.75-7.333,4.083-7.75c0,0,4.833-8.333,7.75-10.75l0.417-1.25
		c0,0,3.167,1.167,6.417,0.75c0,0,8.5-1,12.833-4c0,0,5.167-3.167,6.5-5.417c0,0,7.417,1.334,9.417-2.083l-4.25-11.917l-6.167-8.166
		L216.833,327.833z"/>
	<path display="inline" fill="#F8D515" d="M247.166,352.509c0,0-10.25,3.834-13.083,8.25c0,0-6,7.332-7.5,10.666
		c0,0-3.083,6.584-4.333,11.334c0,0-2.083,6.585-2.75,13.752c0,0-0.75,7.751-0.167,11.001c0,0,0.417,6.667,1.75,11.084
		c0,0,1.917,6.585,4.25,10.668c0,0,4.333,6.083,7.167,7.333c0,0,3.833,2.751,7.583,3.084c0,0,4.583,0.25,7.167-0.5
		c0,0,3.751-1.084,6.917-4.084c0,0-0.083,1.916,1.667,2c0,0,5,0.584,7.5-0.333c0,0,4.334-1.666,5.667-2.583c0,0,5-3.584,6.75-7.417
		c0,0,3.251-6.583,3.667-11.5c0,0,0.834-8.25-0.166-12.083c0,0-2.25-8.085-2.667-9.418c0,0-2.75-8-2.75-8.25
		s-2.416-7.667-2.583-8.917c0,0-1.5-6.417-1.5-7.25c0,0,3.166-1.417,3.833-3.917c0,0,2.499-4.084,2.666-6.417
		c0,0,0.918-4.917,0.834-6c0,0,2.5-1.667,2.583-3l-8.5-2.25l-10.917-1.166l-8.417,2.166L247.166,352.509z"/>
</g>
</svg>
