<?xml version="1.0" encoding="utf-8"?>
<!-- Generator: Adobe Illustrator 16.0.0, SVG Export Plug-In . SVG Version: 6.00 Build 0)  -->
<!DOCTYPE svg PUBLIC "-//W3C//DTD SVG 1.1//EN" "http://www.w3.org/Graphics/SVG/1.1/DTD/svg11.dtd">
<svg version="1.1" id="Layer_1" xmlns="http://www.w3.org/2000/svg" xmlns:xlink="http://www.w3.org/1999/xlink" x="0px" y="0px"
	 width="24px" height="24px" viewBox="0 0 24 24" enable-background="new 0 0 24 24" xml:space="preserve">
<g>
	<path fill="#FFA000" d="M7.351,15.139c0,0-0.661-0.986-1.333-1.55c0,0-1.031-1.167-1.229-1.702c0,0-0.585-1.444-0.525-2.325
		c0,0,0.098-1.879,0.662-2.789c0.563-0.91,0.603-1.039,1.068-1.533c0,0,0.89-0.88,1.315-1.157c0,0,1.187-0.752,2.156-1.019
		c0,0,1.028-0.257,1.879-0.208c0,0,0.871,0.079,1.237,0.188c0,0,1.138,0.316,1.335,0.445c0,0,0.989,0.485,1.118,0.574
		c0,0,1.067,0.772,1.107,0.821c0,0,0.831,0.762,0.91,0.9c0,0,0.722,0.93,0.781,1.098c0,0,0.396,0.702,0.465,0.92
		c0,0,0.277,0.88,0.326,1.157c0,0,0.109,0.683,0.1,0.9c0,0,0.01,0.574-0.04,0.871c0,0-0.139,0.751-0.247,0.92
		c0,0-0.247,0.563-0.326,0.692c0,0-0.356,0.554-0.455,0.663c0,0-0.465,0.475-0.564,0.573l-0.643,0.732l-0.287,0.307l-0.228,0.287
		c0,0-0.247,0.237,0.021,0.396c0,0,0.188,0.267,0.207,0.386c0,0,0.1,0.228,0.06,0.425c0,0-0.029,0.179-0.089,0.347
		c0,0-0.168,0.276-0.247,0.355l-0.06,0.079c0,0,0.732-0.138,1.028-0.257c0,0,0.228-0.079,0.277,0.069c0,0,0.05,0.178-0.02,0.316
		c0,0-0.228,0.366-0.316,0.436c0,0-0.376,0.336-0.534,0.455c0,0-0.544,0.365-0.94,0.435c0,0,0.109,0.021,0.04,0.129
		c0,0-0.247,0.326-0.416,0.386c0,0-0.415,0.118-0.633,0.159c0,0-0.326-0.02-0.573-0.02h-0.277c0,0-0.108,0.236-0.208,0.297
		c0,0-0.228,0.178-0.395,0.227c0,0-0.356,0.148-0.544,0.168c0,0-0.445,0.024-0.554,0.005c0,0-0.366-0.082-0.416-0.111
		c0,0-0.198,0.28-0.386,0.43c0,0-0.188,0.17-0.316,0.249c0,0-0.425,0.258-0.604,0.317c0,0-0.475,0.138-0.583,0.148
		c0,0-0.643,0.119-0.771,0.079c0,0-0.138,0.011-0.178,0c0,0-0.188,0.1-0.396,0.148c0,0-1.563,0.228-1.771,0.188
		c0,0-0.93-0.04-1.187-0.158c0,0-0.851-0.277-1.068-0.534c0,0-0.574-0.544-0.673-0.762c0,0-0.228-0.673-0.148-1.049
		c0,0,0.099-0.623,0.267-0.841c0,0,0.287-0.445,0.406-0.524c0,0-0.88-0.207-1.019-0.336c0,0-0.623-0.396-0.841-0.633
		c0,0-0.435-0.484-0.593-0.791c0,0-0.218-0.584-0.267-0.792c0,0-0.139-0.801-0.188-1.275c0,0,0.336,0.593,0.416,0.683
		c0,0,0.386,0.355,0.524,0.415c0,0,0.722,0.307,0.802,0.347c0,0,0.475,0.286,0.593,0.435c0,0,0.465,0.495,0.544,0.722
		c0,0,0.178,0.436,0.188,0.574c0,0,0.109,0.396,0.109,0.494c0,0,0.316-0.158,0.603-0.148c0,0,0.416-0.029,0.624,0.03
		c0,0,0.02-0.228,0.079-0.287c0,0-0.336-0.465-0.376-0.593c0,0-0.198-0.555-0.188-0.673c0,0-0.03-0.465,0.01-0.544
		c0,0,0.049-0.337,0.119-0.406c0,0,0.05-0.139,0.099-0.188c0,0,0.109-0.148,0.297,0.118c0,0,0.296,0.366,0.316,0.396
		c0,0,0.257,0.365,0.405,0.514c0,0,0.465,0.545,0.564,0.604c0,0,0.465,0.475,0.633,0.564c0,0,0.583,0.405,0.761,0.464
		c0,0,0.792,0.366,0.9,0.416c0,0,0.623,0.267,0.751,0.386c0,0,0.267,0.188,0.307,0.287c0,0,0.228-0.326,0.099-0.544
		c0,0-0.524-0.258-0.683-0.297c0,0-0.663-0.208-0.751-0.248c0,0-0.445-0.217-0.584-0.316c0,0-0.386-0.336-0.484-0.454
		c0,0-0.168-0.287-0.218-0.426c0,0-0.099-0.554-0.079-0.752L7.351,15.139z"/>
	<path fill="#FFA000" d="M15.71,18.509l0.624,0.623l2.092-2.088v-0.33l0.113-0.117c0.477,0.41,1.097,0.657,1.77,0.657
		c1.502,0,2.72-1.218,2.72-2.72s-1.218-2.72-2.72-2.72s-2.72,1.218-2.72,2.72c0,0.673,0.247,1.292,0.657,1.77l-0.117,0.113h-0.331
		L15.71,18.509z M18.426,14.534c0-1.042,0.841-1.883,1.883-1.883s1.883,0.841,1.883,1.883c0,1.041-0.841,1.883-1.883,1.883
		S18.426,15.575,18.426,14.534z"/>
</g>
</svg>
